<?xml version="1.0" standalone="no"?>
<!DOCTYPE svg PUBLIC "-//W3C//DTD SVG 20010904//EN"
 "http://www.w3.org/TR/2001/REC-SVG-20010904/DTD/svg10.dtd">
<svg version="1.0" xmlns="http://www.w3.org/2000/svg"
 width="640.000000pt" height="640.000000pt" viewBox="0 0 640.000000 640.000000"
 preserveAspectRatio="xMidYMid meet">
<metadata>
Created by potrace 1.14, written by Peter Selinger 2001-2017
</metadata>
<g transform="translate(0.000000,640.000000) scale(0.100000,-0.100000)"
fill="#000000" stroke="none">
<path d="M3767 5754 c-3 -3 -11 -7 -19 -8 -32 -7 -78 -29 -78 -37 0 -5 -6 -9
-13 -9 -13 0 -36 -23 -80 -77 -21 -27 -48 -98 -82 -222 -13 -47 -37 -133 -54
-191 -16 -58 -55 -195 -86 -305 -31 -110 -59 -207 -62 -215 -3 -8 -8 -23 -10
-33 -1 -10 -12 -46 -22 -80 -16 -51 -111 -381 -126 -437 -19 -69 -27 -98 -53
-192 -17 -59 -33 -111 -36 -116 -3 -4 -7 -19 -10 -33 -6 -26 -18 -70 -91 -329
-25 -91 -49 -172 -52 -180 -3 -8 -7 -22 -9 -30 -2 -8 -17 -62 -34 -120 -17
-58 -33 -112 -35 -120 -3 -8 -9 -31 -14 -50 -44 -159 -61 -220 -69 -241 -5
-13 -10 -27 -11 -31 0 -5 -1 -9 -2 -10 0 -2 -2 -10 -4 -18 -10 -39 -94 -334
-124 -435 -12 -38 -23 -79 -26 -90 -5 -22 -20 -76 -58 -202 -14 -46 -23 -83
-20 -83 2 0 -1 -8 -6 -18 -5 -10 -19 -52 -30 -93 -10 -41 -36 -130 -56 -199
-20 -69 -38 -132 -40 -140 -2 -8 -10 -36 -18 -62 -8 -27 -13 -48 -11 -48 3 0
0 -8 -5 -18 -6 -11 -12 -30 -15 -43 -3 -13 -19 -73 -36 -133 -25 -87 -30 -123
-27 -172 3 -34 9 -68 13 -76 5 -7 9 -18 10 -25 3 -21 45 -76 83 -111 63 -57
115 -76 211 -76 75 -1 92 2 140 28 68 35 135 106 156 166 13 39 78 258 89 300
2 8 4 15 5 15 1 0 3 11 6 25 2 14 7 32 11 40 3 8 7 20 8 25 2 6 26 91 55 190
28 99 53 185 54 190 1 6 8 30 15 55 7 25 15 56 18 69 2 14 7 29 11 35 3 6 7
16 8 21 2 11 27 99 44 159 7 21 13 46 15 55 2 9 18 63 35 121 17 58 33 112 35
120 2 8 4 15 5 15 1 0 3 11 6 25 2 14 7 32 11 40 3 8 7 20 8 26 3 14 72 256
90 314 7 25 19 65 26 90 7 25 13 47 14 50 1 3 5 19 9 35 4 17 10 37 13 45 4 8
7 17 7 20 5 21 33 121 57 200 15 52 34 120 43 150 17 65 54 193 131 460 31
107 57 200 59 205 1 6 8 30 15 55 7 25 15 52 17 60 6 28 45 165 51 180 3 8 7
20 8 25 6 25 35 127 58 203 14 45 23 82 20 82 -2 0 1 8 6 18 5 10 19 52 30 93
10 41 36 130 56 199 20 69 38 130 39 135 1 6 8 30 15 55 7 25 15 56 18 69 2
14 7 29 11 35 3 6 7 16 8 21 2 11 39 144 52 190 23 75 4 195 -39 258 -65 94
-148 140 -260 144 -42 1 -79 0 -82 -3z"/>
<path d="M1417 4644 c-3 -3 -20 -8 -39 -10 -90 -14 -116 -37 -735 -658 l-600
-601 -22 -67 c-30 -92 -26 -162 17 -258 18 -42 1203 -1229 1245 -1248 15 -6
39 -18 54 -24 40 -19 169 -15 226 6 26 10 47 22 47 26 0 4 8 10 18 12 29 8 91
91 112 150 13 36 18 75 16 123 -4 129 1 123 -513 637 -255 254 -462 466 -460
471 1 4 210 216 464 470 523 524 508 505 507 647 0 64 -5 96 -21 130 -46 101
-140 171 -249 186 -27 3 -52 8 -55 10 -3 2 -9 1 -12 -2z"/>
<path d="M4895 4633 c-40 -9 -105 -36 -105 -44 0 -5 -6 -9 -13 -9 -20 0 -86
-79 -109 -130 -25 -55 -30 -191 -9 -236 7 -16 19 -40 25 -54 6 -14 218 -233
471 -487 253 -255 460 -467 460 -473 0 -6 -208 -219 -462 -473 -514 -515 -504
-502 -509 -637 -3 -103 22 -168 92 -237 71 -68 134 -92 234 -89 137 5 109 -18
771 644 677 676 654 648 653 792 -1 145 28 110 -648 785 -331 330 -614 606
-631 614 -16 7 -39 18 -50 24 -20 10 -135 17 -170 10z"/>
</g>
</svg>
